<svg xmlns="http://www.w3.org/2000/svg" version="1.1" xmlns:xlink="http://www.w3.org/1999/xlink" xmlns:svgjs="http://svgjs.dev/svgjs" width="1000" height="1000" viewBox="0 0 1000 1000"><rect width="1000" height="1000" fill="#000000"></rect><g transform="matrix(0.7,0,0,0.7,150.5114552354347,103.45000000000005)"><svg viewBox="0 0 247 280" data-background-color="#ffffff" preserveAspectRatio="xMidYMid meet" height="1133" width="1000" xmlns="http://www.w3.org/2000/svg" xmlns:xlink="http://www.w3.org/1999/xlink"><defs></defs><g id="tight-bounds" transform="matrix(1,0,0,1,-0.18047063307483313,0)"><svg viewBox="0 0 247.36094126614964 280" height="280" width="247.36094126614964"><g><svg viewBox="0 0 278.2696 314.98702908057874" height="280" width="247.36094126614964"><g><svg viewBox="0 0 278.2696 314.98702908057874" height="314.98702908057874" width="278.2696"><g><svg viewBox="0 0 278.2696 314.98702908057874" height="314.98702908057874" width="278.2696"><g><svg viewBox="0 0 278.2696 278.2696" height="278.2696" width="278.2696"><g transform="matrix(1,0,0,1,73.54602628064397,73.54602628064397)"><svg viewBox="0 0 131.17754743871208 131.17754743871208" height="131.17754743871208" width="131.17754743871208"><g><svg xmlns="http://www.w3.org/2000/svg" xmlns:xlink="http://www.w3.org/1999/xlink" version="1.1" x="0" y="0" viewBox="0 0 98 98" enable-background="new 0 0 98 98" xml:space="preserve" height="131.17754743871208" width="131.17754743871208" class="icon-o-0" data-fill-palette-color="accent" id="o-0"><g fill="#942ce5" data-fill-palette-color="accent"><g fill="#942ce5" data-fill-palette-color="accent"><path d="M49 98C21.981 98 0 76.019 0 49.001 0 21.981 21.981 0 49 0s49 21.981 49 49.001C98 76.019 76.019 98 49 98zM49 3.308c-25.194 0-45.692 20.497-45.692 45.692 0 25.194 20.497 45.691 45.692 45.691s45.692-20.497 45.692-45.691C94.692 23.806 74.194 3.308 49 3.308z" fill="#ffffff" data-fill-palette-color="accent"></path></g><g fill="#942ce5" data-fill-palette-color="accent"><path d="M49 55.808c-3.754 0-6.807-3.054-6.807-6.808 0-3.753 3.054-6.808 6.807-6.808s6.807 3.054 6.807 6.808C55.807 52.754 52.754 55.808 49 55.808zM49 44.399c-2.537 0-4.602 2.065-4.602 4.602 0 2.537 2.064 4.602 4.602 4.602s4.602-2.065 4.602-4.602C53.602 46.463 51.537 44.399 49 44.399z" fill="#ffffff" data-fill-palette-color="accent"></path></g><g fill="#942ce5" data-fill-palette-color="accent"><path d="M35.736 37.515c-0.237 0-0.481-0.005-0.734-0.018-6.193-0.307-16.532-2.257-16.969-2.34-0.326-0.068-2.941-0.675-3.743-2.967-0.576-1.646-0.01-3.515 1.681-5.558C25.498 15.125 38.291 9.704 38.831 9.479c0.133-0.053 1.164-0.454 2.397-0.454 1.243 0 2.32 0.406 3.113 1.174 0.975 0.943 1.468 2.363 1.467 4.217 0.007 0.445 0.155 11.519-2.428 18.164C43.013 34.409 41.031 37.515 35.736 37.515zM41.228 12.333c-0.597 0-1.148 0.21-1.154 0.212-0.094 0.04-12.566 5.34-21.555 16.197-1.001 1.208-1.228 2.009-1.107 2.354 0.146 0.418 0.966 0.753 1.267 0.815 0.075 0.014 10.522 1.985 16.486 2.281 4.525 0.24 4.972-2.262 4.975-2.285l0.103-0.391c2.406-6.014 2.258-16.965 2.256-17.074 0-0.912-0.167-1.582-0.46-1.865C41.874 12.414 41.601 12.333 41.228 12.333z" fill="#ffffff" data-fill-palette-color="accent"></path></g><g fill="#942ce5" data-fill-palette-color="accent"><path d="M22.339 75.781c-1.762 0-3.341-1.172-4.695-3.483-7.553-12.885-8.273-26.761-8.299-27.345-0.01-0.279-0.043-2.588 1.43-4.111 1.28-1.326 3.242-1.619 5.596-0.759 0.421 0.145 10.876 3.795 16.238 8.492 1.698 1.032 4.02 4.175 1.754 9.557-2.405 5.714-7.774 14.763-8.002 15.146C26.187 73.558 24.739 75.781 22.339 75.781zM13.872 42.898c-0.428 0-0.608 0.13-0.718 0.243-0.412 0.426-0.513 1.381-0.503 1.679 0.005 0.114 0.721 13.646 7.848 25.804 0.798 1.361 1.474 1.847 1.841 1.847 0.428 0 0.994-0.602 1.201-0.924 0.031-0.053 5.457-9.196 7.773-14.7 1.703-4.043-0.249-5.341-0.477-5.475l-0.299-0.213c-4.824-4.309-15.17-7.923-15.274-7.96C14.705 42.997 14.245 42.898 13.872 42.898z" fill="#ffffff" data-fill-palette-color="accent"></path></g><g fill="#942ce5" data-fill-palette-color="accent"><path d="M50.637 87.756c-10.135 0-17.808-2.363-18.13-2.463-0.317-0.103-2.946-1.024-3.628-3.411-0.442-1.548 0.048-3.181 1.455-4.856 0.28-0.346 7.3-8.94 13.553-12.367 0.466-0.355 1.704-1.143 3.531-1.143 2.016 0 4.045 0.934 6.029 2.774 4.547 4.216 11.215 12.356 11.497 12.701 0.206 0.262 1.818 2.408 0.959 4.678-0.617 1.631-2.252 2.7-4.861 3.177C57.746 87.45 54.245 87.756 50.637 87.756zM47.418 66.825c-0.937 0-1.495 0.438-1.5 0.443l-0.33 0.233c-5.7 3.06-12.635 11.547-12.704 11.634-0.646 0.769-0.941 1.432-0.824 1.839 0.165 0.577 1.137 1.065 1.453 1.169 0.054 0.016 7.519 2.306 17.123 2.306 3.409 0 6.709-0.288 9.81-0.855 1.544-0.282 2.233-0.75 2.362-1.093 0.156-0.414-0.256-1.197-0.446-1.438-0.048-0.058-6.786-8.284-11.165-12.345C49.864 67.478 48.557 66.825 47.418 66.825z" fill="#ffffff" data-fill-palette-color="accent"></path></g><g fill="#942ce5" data-fill-palette-color="accent"><path d="M74.673 78.203c-1.185 0-2.902-0.527-4.349-3.038-0.229-0.381-5.892-9.896-6.981-16.943-0.639-1.881-0.397-5.782 4.798-8.448 5.517-2.831 15.447-6.313 15.867-6.46 0.169-0.056 0.912-0.284 1.852-0.284 1.377 0 2.517 0.488 3.297 1.412 0.987 1.167 1.289 2.926 0.899 5.227-2.498 14.728-10.865 25.817-11.221 26.283C78.644 76.196 77.004 78.203 74.673 78.203zM85.86 46.338c-0.431 0-0.799 0.112-0.803 0.113-0.058 0.022-10.092 3.54-15.406 6.267-3.902 2.001-3.241 4.25-3.153 4.5l0.093 0.354c0.925 6.405 6.529 15.822 6.585 15.917 0.312 0.54 0.9 1.405 1.497 1.405 0.572 0 1.306-0.671 1.553-0.977 0.061-0.081 8.211-10.907 10.568-24.803 0.307-1.811-0.048-2.401-0.164-2.538C86.496 46.419 86.237 46.338 85.86 46.338z" fill="#ffffff" data-fill-palette-color="accent"></path></g><g fill="#942ce5" data-fill-palette-color="accent"><path d="M68.203 39.654c-2.224 0-4.165-0.164-5.772-0.487-2.162-0.129-5.544-1.794-6.245-7.388-0.775-6.153-0.649-16.676-0.644-17.121 0.06-1.907 1.246-4.701 4.27-4.701 1.125 0 2.358 0.39 3.769 1.192 12.983 7.383 20.544 19.04 20.86 19.533 0.176 0.282 1.599 2.677 0.586 4.944-0.656 1.469-2.081 2.406-4.236 2.785C80.556 38.458 74.286 39.654 68.203 39.654zM59.813 13.266c-0.906 0-0.962 1.452-0.963 1.466-0.001 0.076-0.127 10.71 0.619 16.635 0.546 4.351 2.885 4.5 3.15 4.502l0.365 0.034c1.409 0.294 3.165 0.443 5.219 0.443 5.758 0 11.928-1.175 11.99-1.187 0.986-0.173 1.637-0.491 1.812-0.876 0.24-0.527-0.151-1.486-0.366-1.844-0.056-0.086-7.442-11.447-19.692-18.414C60.785 13.365 60.111 13.266 59.813 13.266z" fill="#ffffff" data-fill-palette-color="accent"></path></g></g></svg></g></svg></g><path d="M5.276 92.256v0l26.296-0.341c1.058-0.018 1.828-0.203 2.308-0.557 0.478-0.348 0.801-0.71 0.97-1.087v0l0.73 0.272c-0.231 0.468-0.485 1.052-0.76 1.752-0.275 0.7-0.545 1.403-0.807 2.108v0c-0.356 0.955-0.681 1.846-0.976 2.674-0.297 0.834-0.516 1.517-0.657 2.047v0l-0.73-0.272c0.413-1.26 0.496-2.132 0.25-2.614-0.255-0.479-1.094-0.706-2.517-0.683v0l-20.688 0.023-0.248-0.764 14.138 12.511c1.119 1 2.058 1.627 2.816 1.881 0.752 0.252 1.382 0.171 1.892-0.243 0.518-0.418 0.981-1.134 1.387-2.147v0l0.73 0.272c-0.304 0.661-0.6 1.361-0.889 2.098-0.289 0.738-0.553 1.425-0.79 2.062v0c-0.226 0.605-0.411 1.122-0.557 1.551-0.148 0.435-0.265 0.843-0.35 1.223v0l-0.73-0.272c0.057-0.533-0.044-1.139-0.302-1.818-0.258-0.679-0.86-1.429-1.805-2.251v0l-18.931-16.835c0.037-0.1 0.073-0.197 0.108-0.29 0.037-0.1 0.074-0.2 0.112-0.3zM18.539 104.11l3.923-10.518 0.73 0.272-4.059 10.883zM36.827 41.935v0l0.604 0.492c-0.535 0.698-0.857 1.299-0.967 1.802-0.105 0.498-0.005 0.971 0.301 1.418 0.302 0.452 0.826 0.983 1.574 1.593v0l9.088 7.409c1.409 1.149 2.563 2.24 3.464 3.275 0.9 1.035 1.546 2.098 1.936 3.19v0c0.438 1.191 0.517 2.479 0.237 3.866-0.271 1.386-0.915 2.703-1.933 3.952v0c-0.787 0.965-1.654 1.792-2.602 2.479-0.948 0.688-2.005 1.11-3.172 1.267v0c-1.038 0.125-2.004 0.097-2.897-0.081-0.898-0.174-1.849-0.571-2.855-1.194-1.005-0.622-2.191-1.49-3.559-2.605v0l-9.482-7.731c-0.748-0.61-1.348-0.996-1.8-1.159-0.448-0.167-0.884-0.128-1.309 0.119-0.415 0.246-0.913 0.703-1.493 1.373v0l-0.604-0.492c0.366-0.406 0.839-0.944 1.419-1.614 0.58-0.67 1.19-1.397 1.83-2.181v0c0.576-0.707 1.136-1.415 1.679-2.123 0.547-0.714 1-1.311 1.358-1.792v0l0.604 0.492c-0.539 0.703-0.887 1.283-1.044 1.739-0.156 0.465-0.107 0.901 0.147 1.306 0.25 0.41 0.749 0.92 1.497 1.53v0l9.994 8.147c1.373 1.119 2.714 2.045 4.024 2.778 1.319 0.732 2.593 1.04 3.821 0.925 1.238-0.116 2.439-0.889 3.604-2.319v0c1.25-1.533 1.877-2.993 1.883-4.38 0.011-1.383-0.445-2.726-1.368-4.028-0.918-1.298-2.122-2.555-3.614-3.771v0l-9.421-7.68c-0.748-0.61-1.393-0.994-1.934-1.152-0.541-0.158-1.066-0.109-1.575 0.146-0.509 0.255-1.053 0.718-1.634 1.387v0l-0.604-0.492c0.319-0.35 0.731-0.813 1.236-1.39 0.505-0.577 0.961-1.115 1.369-1.615v0c0.429-0.526 0.842-1.053 1.238-1.582 0.4-0.533 0.72-0.968 0.96-1.304zM74.393 14.559v0c0.431 0.892 0.871 1.743 1.322 2.552 0.447 0.804 0.799 1.416 1.057 1.835v0c0.328 0.533 0.646 1.026 0.954 1.477 0.308 0.451 0.582 0.846 0.821 1.184v0l-0.766 0.47c-1.105-1.455-2.066-2.548-2.883-3.28-0.817-0.733-1.68-1.094-2.587-1.083-0.908 0.011-2.059 0.445-3.456 1.302v0l-1.795 1.103 11.606 18.892c0.544 0.885 1.037 1.497 1.479 1.835 0.436 0.341 0.947 0.442 1.533 0.3 0.582-0.147 1.349-0.481 2.302-1.004v0l0.407 0.664c-0.601 0.307-1.347 0.726-2.239 1.259-0.892 0.532-1.792 1.077-2.7 1.635v0c-0.999 0.613-1.931 1.194-2.797 1.742-0.867 0.548-1.553 1.009-2.059 1.382v0l-0.407-0.664c0.903-0.617 1.551-1.152 1.944-1.605 0.39-0.459 0.532-0.96 0.425-1.503-0.107-0.544-0.433-1.258-0.977-2.143v0l-11.606-18.892-1.787 1.098c-1.373 0.843-2.275 1.671-2.707 2.483-0.431 0.812-0.505 1.748-0.22 2.808 0.284 1.06 0.825 2.412 1.623 4.054v0l-0.766 0.471c-0.171-0.38-0.393-0.806-0.667-1.278-0.274-0.472-0.576-0.975-0.903-1.508v0c-0.258-0.42-0.644-1.011-1.16-1.773-0.519-0.768-1.081-1.543-1.688-2.327v0c0.944-0.549 1.971-1.148 3.08-1.798 1.109-0.65 2.219-1.317 3.332-2 1.106-0.68 2.113-1.298 3.021-1.856v0c0.908-0.558 1.909-1.173 3.004-1.846 1.095-0.673 2.189-1.36 3.281-2.062 1.092-0.702 2.085-1.344 2.979-1.924zM110.417 2.22v0c2.415-0.522 4.648-0.432 6.7 0.268 2.052 0.701 3.8 1.965 5.244 3.792 1.444 1.827 2.482 4.201 3.114 7.124v0c0.615 2.844 0.639 5.445 0.071 7.801-0.567 2.357-1.636 4.329-3.207 5.915-1.57 1.593-3.536 2.644-5.899 3.155v0c-2.415 0.522-4.648 0.432-6.7-0.269-2.052-0.701-3.802-1.971-5.248-3.811-1.447-1.84-2.483-4.208-3.109-7.104v0c-0.615-2.844-0.632-5.446-0.052-7.806 0.58-2.36 1.649-4.331 3.207-5.915 1.557-1.59 3.517-2.64 5.879-3.15zM110.409 2.937v0c-1.647 0.356-2.958 1.239-3.934 2.648-0.969 1.408-1.573 3.187-1.81 5.337-0.244 2.151-0.08 4.547 0.491 7.19v0c0.582 2.694 1.463 4.956 2.642 6.786 1.18 1.836 2.528 3.156 4.044 3.959 1.521 0.795 3.056 1.026 4.605 0.691v0c1.647-0.356 2.959-1.236 3.935-2.639 0.969-1.408 1.571-3.194 1.806-5.356 0.241-2.164 0.078-4.554-0.487-7.17v0c-0.588-2.72-1.47-4.989-2.646-6.806-1.177-1.823-2.521-3.137-4.03-3.942-1.503-0.806-3.041-1.039-4.616-0.698zM160.884 29.775v0l0.12-0.77c0.883 0.084 1.56 0.085 2.031 0.003 0.479-0.087 0.829-0.349 1.052-0.786 0.223-0.437 0.407-1.119 0.552-2.047v0l2.975-19.096c0.149-0.954 0.182-1.666 0.101-2.137-0.082-0.471-0.336-0.827-0.764-1.069-0.422-0.234-1.068-0.433-1.939-0.595v0l0.12-0.77c0.588 0.119 1.331 0.261 2.228 0.428 0.891 0.166 1.773 0.317 2.649 0.453v0c1 0.156 1.94 0.289 2.818 0.399 0.879 0.11 1.59 0.194 2.134 0.251v0l-0.12 0.77c-0.879-0.11-1.555-0.118-2.028-0.023-0.481 0.1-0.831 0.362-1.052 0.786-0.228 0.423-0.416 1.111-0.565 2.066v0l-2.975 19.095c-0.145 0.928-0.174 1.634-0.088 2.119 0.08 0.484 0.334 0.84 0.764 1.069 0.424 0.221 1.069 0.426 1.936 0.615v0l-0.12 0.77c-0.531-0.137-1.233-0.28-2.107-0.429-0.873-0.149-1.809-0.302-2.809-0.458v0c-0.875-0.136-1.761-0.268-2.658-0.394-0.903-0.127-1.655-0.211-2.255-0.25zM144.788 27.267v0l0.12-0.77c0.883 0.084 1.56 0.085 2.031 0.003 0.472-0.088 0.823-0.35 1.053-0.786 0.223-0.437 0.407-1.119 0.551-2.047v0l2.975-19.096c0.149-0.954 0.182-1.666 0.101-2.137-0.088-0.472-0.343-0.828-0.763-1.069-0.422-0.234-1.068-0.433-1.939-0.595v0l0.12-0.77c0.535 0.11 1.239 0.247 2.109 0.41 0.864 0.162 1.797 0.32 2.796 0.476v0c0.901 0.14 1.798 0.267 2.691 0.378 0.886 0.111 1.627 0.2 2.223 0.266v0l-0.12 0.77c-0.879-0.11-1.555-0.118-2.028-0.023-0.474 0.101-0.825 0.363-1.053 0.786-0.221 0.424-0.406 1.113-0.554 2.067v0l-2.976 19.095c-0.145 0.928-0.177 1.634-0.097 2.118 0.086 0.485 0.341 0.842 0.763 1.069 0.424 0.221 1.069 0.426 1.936 0.615v0l-0.12 0.77c-0.584-0.145-1.316-0.293-2.195-0.443-0.886-0.152-1.78-0.298-2.681-0.438v0c-1-0.156-1.935-0.295-2.806-0.417-0.877-0.123-1.589-0.2-2.137-0.232zM167.43 17.149l-15.217-2.371 0.12-0.77 15.217 2.371zM220.243 25.11v0l-0.385 0.677c-0.777-0.411-1.423-0.629-1.938-0.653-0.509-0.021-0.958 0.156-1.348 0.532-0.396 0.373-0.832 0.978-1.309 1.818v0l-5.794 10.193c-0.898 1.58-1.783 2.9-2.654 3.961-0.871 1.06-1.811 1.873-2.822 2.439v0c-1.101 0.63-2.359 0.922-3.773 0.877-1.411-0.036-2.818-0.453-4.218-1.249v0c-1.082-0.615-2.042-1.333-2.878-2.153-0.836-0.82-1.428-1.792-1.777-2.917v0c-0.295-1.003-0.429-1.96-0.402-2.871 0.022-0.914 0.256-1.919 0.702-3.013 0.446-1.094 1.105-2.409 1.977-3.942v0l6.046-10.637c0.477-0.839 0.758-1.495 0.843-1.968 0.091-0.469-0.021-0.893-0.335-1.27-0.311-0.368-0.845-0.783-1.602-1.244v0l0.385-0.677c0.462 0.293 1.071 0.67 1.828 1.13 0.757 0.461 1.575 0.941 2.454 1.442v0c0.793 0.451 1.584 0.885 2.373 1.303 0.795 0.421 1.459 0.768 1.993 1.041v0l-0.385 0.677c-0.783-0.414-1.413-0.661-1.888-0.74-0.485-0.077-0.906 0.044-1.263 0.362-0.363 0.315-0.783 0.892-1.259 1.731v0l-6.372 11.209c-0.875 1.54-1.565 3.016-2.07 4.43-0.502 1.422-0.594 2.73-0.277 3.922 0.321 1.201 1.283 2.257 2.887 3.168v0c1.719 0.977 3.263 1.353 4.632 1.128 1.366-0.219 2.614-0.892 3.744-2.019 1.127-1.121 2.166-2.518 3.117-4.19v0l6.007-10.567c0.477-0.839 0.748-1.539 0.814-2.1 0.066-0.56-0.07-1.07-0.406-1.529-0.336-0.459-0.883-0.919-1.64-1.38v0l0.385-0.677c0.398 0.257 0.923 0.586 1.576 0.988 0.653 0.402 1.26 0.762 1.821 1.081v0c0.59 0.336 1.179 0.655 1.765 0.957 0.592 0.306 1.074 0.549 1.446 0.73zM255.412 60.192v0l-0.592 0.506c-0.596-0.655-1.13-1.079-1.601-1.271-0.471-0.192-0.956-0.18-1.455 0.036-0.494 0.221-1.108 0.646-1.842 1.274v0l-17.678 15.133c-0.104-0.121-0.201-0.235-0.292-0.341-0.095-0.111-0.193-0.225-0.292-0.342v0l8.572-28.887-15.629 13.38c-0.713 0.611-1.218 1.152-1.515 1.625-0.292 0.478-0.357 0.981-0.194 1.508 0.162 0.527 0.552 1.193 1.169 1.996v0l-0.591 0.506c-0.263-0.389-0.634-0.873-1.113-1.453-0.484-0.585-0.944-1.133-1.381-1.644v0c-0.424-0.496-0.856-0.99-1.295-1.482-0.443-0.497-0.828-0.895-1.154-1.194v0l0.592-0.507c0.616 0.638 1.155 1.058 1.616 1.259 0.461 0.201 0.946 0.189 1.455-0.036 0.504-0.23 1.113-0.65 1.826-1.261v0l14.386-12.315c0.733-0.628 1.222-1.147 1.466-1.558 0.24-0.416 0.279-0.852 0.116-1.309-0.168-0.452-0.53-1.023-1.086-1.713v0l0.592-0.507c0.266 0.351 0.605 0.788 1.018 1.312 0.408 0.518 0.825 1.025 1.249 1.521v0c0.372 0.435 0.738 0.841 1.095 1.218 0.358 0.377 0.681 0.714 0.971 1.01v0l-7.158 24.245 12.671-10.847c0.733-0.628 1.243-1.174 1.529-1.638 0.282-0.469 0.347-0.972 0.195-1.508-0.152-0.536-0.547-1.197-1.185-1.983v0l0.592-0.507c0.283 0.371 0.663 0.857 1.141 1.455 0.478 0.599 0.929 1.146 1.353 1.643v0c0.437 0.511 0.883 1.011 1.336 1.499 0.449 0.483 0.82 0.876 1.113 1.177zM275.599 102.589v0c-0.956 0.259-1.874 0.534-2.752 0.828-0.873 0.291-1.539 0.524-2 0.7v0c-0.585 0.223-1.127 0.445-1.627 0.665-0.5 0.22-0.939 0.416-1.315 0.588v0l-0.321-0.84c1.634-0.817 2.886-1.559 3.757-2.227 0.871-0.668 1.385-1.449 1.542-2.343 0.157-0.894-0.057-2.106-0.641-3.636v0l-0.753-1.969-20.711 7.917c-0.97 0.371-1.662 0.742-2.076 1.114-0.416 0.366-0.609 0.849-0.579 1.451 0.037 0.599 0.224 1.415 0.562 2.448v0l-0.728 0.278c-0.19-0.647-0.465-1.458-0.823-2.433-0.358-0.975-0.728-1.96-1.108-2.956v0c-0.418-1.095-0.817-2.119-1.196-3.071-0.379-0.953-0.704-1.712-0.977-2.278v0l0.727-0.278c0.44 1.001 0.846 1.737 1.218 2.207 0.379 0.468 0.845 0.7 1.399 0.695 0.554-0.005 1.316-0.193 2.287-0.564v0l20.711-7.916-0.749-1.959c-0.575-1.505-1.222-2.545-1.94-3.119-0.718-0.574-1.625-0.819-2.719-0.735-1.094 0.083-2.523 0.365-4.285 0.846v0l-0.321-0.839c0.405-0.098 0.864-0.238 1.379-0.421 0.515-0.182 1.064-0.385 1.649-0.609v0c0.46-0.176 1.112-0.447 1.956-0.812 0.85-0.368 1.717-0.777 2.6-1.228v0c0.365 1.03 0.764 2.149 1.198 3.359 0.434 1.21 0.884 2.424 1.35 3.643 0.464 1.213 0.886 2.317 1.266 3.312v0c0.38 0.995 0.8 2.093 1.258 3.293 0.459 1.2 0.932 2.402 1.421 3.606 0.488 1.203 0.935 2.298 1.341 3.283zM38.825 180.944v0l-19.877 17.723c-0.798 0.718-1.265 1.369-1.401 1.954-0.13 0.582-0.133 1.077-0.009 1.486v0l-0.739 0.276c-0.135-0.511-0.33-1.128-0.586-1.849-0.256-0.722-0.517-1.438-0.783-2.149v0c-0.36-0.96-0.703-1.859-1.031-2.696-0.325-0.831-0.61-1.496-0.853-1.995v0l0.738-0.277c0.519 1.235 1.034 1.955 1.546 2.162 0.509 0.201 1.301-0.181 2.376-1.145v0l15.796-13.754 0.707 0.408-19.124-0.177c-1.522-0.02-2.656 0.123-3.401 0.431-0.739 0.305-1.169 0.79-1.29 1.453-0.115 0.662 0.009 1.515 0.372 2.559v0l-0.739 0.277c-0.207-0.705-0.445-1.436-0.716-2.196-0.268-0.753-0.522-1.451-0.762-2.092v0c-0.231-0.617-0.434-1.139-0.607-1.565-0.174-0.426-0.355-0.816-0.546-1.171v0l0.739-0.277c0.309 0.446 0.788 0.842 1.438 1.19 0.649 0.347 1.608 0.525 2.876 0.533v0l25.652 0.292c0.037 0.1 0.075 0.2 0.112 0.299 0.037 0.1 0.075 0.2 0.112 0.3zM20.814 180.691l3.985 10.645-0.739 0.276-4.125-11.018zM64.391 221.475v0l-0.612 0.499c-0.589-0.679-1.119-1.123-1.59-1.331-0.476-0.204-0.969-0.202-1.477 0.006-0.504 0.214-1.133 0.628-1.886 1.244v0l-9.207 7.516c-1.429 1.166-2.748 2.088-3.956 2.766-1.214 0.682-2.397 1.106-3.55 1.274v0c-1.273 0.188-2.57 0.005-3.891-0.55-1.316-0.559-2.49-1.47-3.522-2.734v0c-0.796-0.975-1.44-2.001-1.932-3.077-0.487-1.081-0.692-2.216-0.614-3.405v0c0.092-1.055 0.314-2.01 0.666-2.865 0.361-0.853 0.952-1.714 1.773-2.582 0.817-0.873 1.917-1.874 3.299-3.002v0l9.601-7.839c0.758-0.619 1.265-1.136 1.52-1.55 0.255-0.414 0.304-0.854 0.147-1.319-0.162-0.461-0.514-1.046-1.058-1.754v0l0.612-0.499c0.329 0.445 0.765 1.021 1.308 1.729 0.544 0.708 1.142 1.462 1.795 2.261v0c0.581 0.712 1.168 1.41 1.762 2.095 0.598 0.69 1.098 1.261 1.502 1.713v0l-0.612 0.499c-0.589-0.679-1.093-1.145-1.513-1.395-0.425-0.246-0.865-0.286-1.322-0.119-0.457 0.167-1.065 0.56-1.823 1.178v0l-10.119 8.262c-1.387 1.133-2.577 2.276-3.57 3.43-0.996 1.149-1.563 2.35-1.699 3.605-0.135 1.245 0.389 2.592 1.572 4.041v0c1.263 1.547 2.581 2.466 3.952 2.756 1.377 0.286 2.805 0.108 4.285-0.532 1.475-0.646 2.969-1.586 4.48-2.819v0l9.539-7.788c0.753-0.615 1.262-1.176 1.526-1.685 0.269-0.503 0.327-1.036 0.176-1.6-0.152-0.555-0.5-1.186-1.043-1.895v0l0.611-0.499c0.278 0.383 0.654 0.885 1.125 1.505 0.468 0.615 0.91 1.178 1.327 1.689v0c0.434 0.531 0.874 1.049 1.32 1.553 0.446 0.504 0.812 0.91 1.098 1.218zM93.05 240.977v0c-0.613 0.795-1.181 1.58-1.703 2.353-0.525 0.779-0.919 1.381-1.18 1.807v0c-0.331 0.539-0.63 1.051-0.896 1.536-0.267 0.485-0.498 0.913-0.695 1.285v0l-0.775-0.476c0.806-1.669 1.355-3.04 1.646-4.111 0.291-1.072 0.222-2.016-0.205-2.834-0.428-0.818-1.348-1.66-2.761-2.528v0l-1.813-1.113-11.755 19.141c-0.551 0.896-0.878 1.621-0.983 2.174-0.111 0.549 0.034 1.052 0.433 1.508 0.396 0.462 1.051 1.005 1.965 1.629v0l-0.413 0.672c-0.557-0.404-1.28-0.887-2.169-1.449-0.89-0.562-1.794-1.125-2.713-1.689v0c-1.01-0.62-1.961-1.196-2.853-1.729-0.892-0.532-1.622-0.941-2.189-1.227v0l0.413-0.672c0.97 0.533 1.75 0.872 2.342 1.016 0.588 0.15 1.104 0.053 1.55-0.291 0.44-0.347 0.935-0.969 1.485-1.865v0l11.755-19.141-1.813-1.114c-1.39-0.854-2.552-1.29-3.486-1.308-0.928-0.015-1.807 0.347-2.637 1.088-0.824 0.744-1.798 1.853-2.922 3.327v0l-0.775-0.476c0.265-0.33 0.548-0.726 0.848-1.19 0.301-0.464 0.616-0.965 0.948-1.505v0c0.261-0.426 0.621-1.049 1.078-1.869 0.454-0.815 0.899-1.675 1.337-2.578v0c0.928 0.601 1.938 1.253 3.03 1.955 1.098 0.706 2.209 1.403 3.333 2.093 1.118 0.686 2.136 1.312 3.055 1.876v0c0.919 0.564 1.935 1.188 3.047 1.872 1.106 0.679 2.228 1.353 3.365 2.02 1.137 0.667 2.173 1.272 3.106 1.813zM118.11 247.704v0c2.447 0.53 4.468 1.546 6.064 3.05 1.602 1.505 2.687 3.402 3.254 5.691 0.566 2.296 0.529 4.921-0.11 7.876v0c-0.624 2.883-1.69 5.292-3.2 7.227-1.509 1.935-3.322 3.307-5.438 4.116-2.109 0.804-4.361 0.947-6.756 0.428v0c-2.44-0.528-4.462-1.545-6.063-3.049-1.596-1.504-2.676-3.406-3.241-5.709-0.571-2.304-0.54-4.92 0.095-7.848v0c0.624-2.883 1.7-5.29 3.228-7.221 1.522-1.932 3.331-3.305 5.429-4.118 2.104-0.812 4.35-0.959 6.738-0.443zM117.802 248.373v0c-1.666-0.361-3.242-0.099-4.728 0.786-1.487 0.891-2.793 2.281-3.917 4.169-1.116 1.884-1.964 4.163-2.543 6.838v0c-0.59 2.727-0.726 5.181-0.408 7.362 0.325 2.182 1.016 3.96 2.075 5.333 1.065 1.375 2.382 2.232 3.95 2.572v0c1.672 0.362 3.252 0.098 4.739-0.793 1.481-0.892 2.784-2.286 3.91-4.182 1.126-1.896 1.975-4.168 2.548-6.816v0c0.596-2.753 0.73-5.214 0.402-7.383-0.321-2.168-1.008-3.938-2.059-5.31-1.045-1.371-2.369-2.229-3.969-2.576zM163.999 275.736v0l-0.121-0.779c0.873-0.19 1.528-0.399 1.964-0.629 0.43-0.222 0.685-0.581 0.763-1.078 0.085-0.492 0.055-1.205-0.09-2.139v0l-3.006-19.344c-0.15-0.967-0.34-1.665-0.568-2.095-0.222-0.43-0.573-0.696-1.053-0.797-0.486-0.093-1.172-0.084-2.058 0.027v0l-0.121-0.78c0.603-0.067 1.36-0.157 2.272-0.272 0.919-0.116 1.819-0.242 2.7-0.379v0c1.013-0.157 1.962-0.318 2.847-0.483 0.878-0.163 1.587-0.301 2.129-0.411v0l0.121 0.779c-0.878 0.163-1.534 0.363-1.969 0.599-0.427 0.242-0.685 0.602-0.772 1.081-0.081 0.477-0.046 1.2 0.104 2.167v0l3.006 19.343c0.145 0.934 0.33 1.623 0.553 2.067 0.232 0.449 0.586 0.714 1.064 0.795 0.485 0.086 1.173 0.087 2.062 0.003v0l0.121 0.78c-0.554 0.032-1.273 0.11-2.157 0.234-0.89 0.125-1.842 0.266-2.855 0.423v0c-0.882 0.137-1.779 0.283-2.691 0.439-0.906 0.154-1.654 0.304-2.245 0.45zM147.695 278.27v0l-0.121-0.78c0.873-0.19 1.528-0.399 1.964-0.629 0.43-0.222 0.685-0.581 0.763-1.078 0.085-0.492 0.055-1.205-0.09-2.139v0l-3.006-19.344c-0.15-0.967-0.34-1.665-0.568-2.095-0.222-0.43-0.573-0.696-1.053-0.796-0.486-0.093-1.172-0.084-2.058 0.026v0l-0.121-0.78c0.55-0.059 1.268-0.143 2.154-0.253 0.892-0.112 1.845-0.246 2.858-0.404v0c0.908-0.141 1.811-0.295 2.708-0.461 0.891-0.165 1.633-0.308 2.228-0.427v0l0.121 0.78c-0.884 0.164-1.54 0.364-1.969 0.599-0.427 0.242-0.685 0.602-0.772 1.08-0.081 0.477-0.046 1.2 0.104 2.167v0l3.006 19.343c0.145 0.934 0.33 1.623 0.553 2.067 0.232 0.449 0.586 0.714 1.064 0.795 0.479 0.087 1.166 0.088 2.062 0.003v0l0.121 0.78c-0.607 0.04-1.359 0.124-2.255 0.249-0.903 0.127-1.809 0.261-2.717 0.402v0c-1.013 0.157-1.963 0.312-2.85 0.463-0.88 0.15-1.588 0.294-2.126 0.432zM166.431 261.532l-15.415 2.395-0.121-0.78 15.415-2.395zM202.873 229.672v0l0.389 0.686c-0.769 0.467-1.295 0.915-1.579 1.345-0.281 0.435-0.361 0.921-0.241 1.457 0.126 0.533 0.43 1.222 0.91 2.068v0l5.867 10.336c0.911 1.604 1.598 3.059 2.064 4.364 0.469 1.311 0.689 2.549 0.661 3.713v0c-0.028 1.287-0.426 2.535-1.194 3.744-0.771 1.204-1.867 2.208-3.285 3.014v0c-1.094 0.621-2.214 1.084-3.358 1.389-1.147 0.299-2.301 0.311-3.46 0.034v0c-1.025-0.268-1.929-0.647-2.712-1.136-0.781-0.499-1.53-1.225-2.248-2.18-0.724-0.952-1.527-2.204-2.408-3.756v0l-6.119-10.779c-0.483-0.851-0.908-1.437-1.273-1.758-0.366-0.321-0.791-0.443-1.276-0.366-0.482 0.082-1.117 0.332-1.907 0.749v0l-0.389-0.686c0.494-0.25 1.135-0.583 1.924-1.001 0.789-0.417 1.632-0.881 2.53-1.39v0c0.799-0.454 1.586-0.916 2.36-1.386 0.78-0.473 1.427-0.871 1.941-1.194v0l0.39 0.687c-0.769 0.467-1.312 0.886-1.629 1.257-0.314 0.377-0.427 0.805-0.34 1.284 0.088 0.478 0.373 1.143 0.857 1.995v0l6.449 11.36c0.884 1.558 1.812 2.922 2.783 4.094 0.965 1.175 2.055 1.934 3.269 2.279 1.205 0.342 2.621 0.051 4.248-0.873v0c1.737-0.986 2.864-2.131 3.38-3.434 0.512-1.309 0.577-2.747 0.193-4.313-0.39-1.563-1.066-3.193-2.029-4.889v0l-6.08-10.71c-0.48-0.845-0.948-1.441-1.404-1.786-0.451-0.349-0.967-0.496-1.549-0.442-0.573 0.057-1.253 0.294-2.042 0.711v0l-0.39-0.686c0.424-0.21 0.982-0.496 1.673-0.857 0.685-0.358 1.314-0.7 1.887-1.025v0c0.596-0.339 1.18-0.685 1.752-1.041 0.572-0.355 1.033-0.648 1.385-0.878zM228.612 202.337v0l0.599 0.513c-0.561 0.695-0.902 1.292-1.025 1.793-0.122 0.51-0.032 0.994 0.267 1.453 0.295 0.464 0.812 1.012 1.55 1.645v0l17.891 15.346c-0.104 0.121-0.204 0.238-0.299 0.348-0.091 0.106-0.189 0.22-0.293 0.342v0l-30.239-4.095 15.821 13.571c0.718 0.616 1.338 1.033 1.86 1.253 0.518 0.225 1.027 0.214 1.527-0.032 0.51-0.247 1.119-0.742 1.827-1.486v0l0.599 0.514c-0.348 0.324-0.777 0.772-1.285 1.345-0.509 0.573-0.984 1.117-1.426 1.632v0c-0.429 0.5-0.858 1.01-1.285 1.529-0.428 0.519-0.767 0.965-1.017 1.339v0l-0.599-0.514c0.54-0.712 0.876-1.318 1.008-1.82 0.132-0.492 0.044-0.971-0.266-1.438-0.305-0.472-0.817-1.016-1.534-1.632v0l-14.563-12.492c-0.743-0.637-1.341-1.045-1.794-1.222-0.448-0.183-0.888-0.156-1.318 0.079-0.43 0.245-0.945 0.698-1.547 1.358v0l-0.599-0.513c0.311-0.321 0.695-0.728 1.154-1.222 0.458-0.493 0.902-0.99 1.33-1.49v0c0.377-0.44 0.727-0.868 1.049-1.285 0.322-0.417 0.61-0.793 0.863-1.128v0l25.37 3.405-12.827-11.002c-0.738-0.633-1.363-1.055-1.875-1.266-0.508-0.216-1.019-0.208-1.535 0.025-0.515 0.242-1.116 0.744-1.804 1.505v0l-0.599-0.513c0.328-0.341 0.756-0.799 1.283-1.374 0.527-0.574 1.004-1.109 1.429-1.603v0c0.447-0.521 0.879-1.045 1.296-1.573 0.418-0.528 0.753-0.96 1.006-1.295zM242.598 170.348v0c0.894 0.457 1.769 0.872 2.625 1.243 0.862 0.374 1.526 0.65 1.993 0.829v0c0.591 0.227 1.149 0.427 1.674 0.6 0.525 0.173 0.989 0.322 1.39 0.448v0l-0.326 0.848c-1.789-0.487-3.236-0.775-4.343-0.865-1.107-0.09-2.023 0.151-2.748 0.722-0.725 0.57-1.385 1.629-1.979 3.177v0l-0.762 1.986 20.971 8.049c0.982 0.377 1.755 0.566 2.317 0.568 0.56 0.008 1.028-0.226 1.403-0.702 0.382-0.474 0.795-1.217 1.241-2.23v0l0.737 0.282c-0.295 0.621-0.638 1.42-1.027 2.398-0.389 0.977-0.777 1.97-1.164 2.977v0c-0.425 1.107-0.817 2.147-1.177 3.121-0.36 0.975-0.628 1.767-0.805 2.377v0l-0.736-0.283c0.346-1.051 0.536-1.88 0.569-2.488 0.04-0.605-0.15-1.095-0.569-1.47-0.422-0.369-1.124-0.742-2.106-1.119v0l-20.971-8.048-0.762 1.986c-0.585 1.523-0.8 2.745-0.648 3.666 0.155 0.915 0.673 1.713 1.552 2.394 0.882 0.674 2.151 1.428 3.807 2.263v0l-0.326 0.848c-0.373-0.2-0.814-0.405-1.325-0.615-0.511-0.21-1.062-0.429-1.653-0.656v0c-0.466-0.179-1.145-0.418-2.036-0.717-0.885-0.297-1.811-0.577-2.779-0.842v0c0.421-1.022 0.876-2.135 1.367-3.338 0.492-1.209 0.975-2.429 1.447-3.659 0.47-1.225 0.898-2.34 1.285-3.348v0c0.387-1.007 0.814-2.12 1.281-3.338 0.465-1.212 0.922-2.438 1.369-3.679 0.448-1.24 0.852-2.369 1.214-3.385zM2.671 142.783c0-5.938 4.814-10.751 10.751-10.751 5.938 0 10.751 4.814 10.752 10.751 0 5.938-4.814 10.751-10.752 10.752-5.938 0-10.751-4.814-10.751-10.752zM252.809 142.783c0-5.938 4.814-10.751 10.751-10.751 5.938 0 10.751 4.814 10.752 10.751 0 5.938-4.814 10.751-10.752 10.752-5.938 0-10.751-4.814-10.751-10.752z" fill="#ffffff" data-fill-palette-color="primary"></path></svg></g><g transform="matrix(1,0,0,1,53.1494936,295.46666128000004)"><svg viewBox="0 0 171.97061280000003 19.520367800578683" height="19.520367800578683" width="171.97061280000003"><g transform="matrix(1,0,0,1,0,0)"><svg width="171.97061280000003" viewBox="3.1500000953674316 -36.5 449.260009765625 51" height="19.520367800578683" data-palette-color="#471aa0"><path d="M20.35 0.7Q15.5 0.7 11.58-1.55 7.65-3.8 5.4-7.73 3.15-11.65 3.15-16.55L3.15-16.55 3.15-17.5Q3.15-22.45 5.38-26.48 7.6-30.5 11.48-32.8 15.35-35.1 20.15-35.1L20.15-35.1Q24.95-35.1 28.85-32.8 32.75-30.5 35-26.48 37.25-22.45 37.25-17.5L37.25-17.5 37.25-16.55Q37.25-11.6 35.08-7.68 32.9-3.75 29.05-1.53 25.2 0.7 20.35 0.7L20.35 0.7ZM20.2-1.2Q24.4-1.2 27.83-3.2 31.25-5.2 33.2-8.72 35.15-12.25 35.15-16.55L35.15-16.55 35.15-17.5Q35.15-21.85 33.15-25.43 31.15-29 27.7-31.05 24.25-33.1 20.1-33.1L20.1-33.1Q15.95-33.1 12.55-31.05 9.15-29 7.2-25.43 5.25-21.85 5.25-17.5L5.25-17.5 5.25-16.55Q5.25-12.25 7.2-8.72 9.15-5.2 12.58-3.2 16-1.2 20.2-1.2L20.2-1.2ZM43.15-21.05Q42.95-21.8 42.3-22.58 41.65-23.35 40.85-23.9L40.85-23.9 41.9-25.55Q43.15-24.8 43.9-23.78 44.65-22.75 45.1-21.35L45.1-21.35 51.2-3 58.35-24.85 60.7-24.85 67.8-3 74.95-24.85 77.05-24.85 69-0.1 66.65-0.1 59.5-21.95 52.35-0.1 49.95-0.1 43.15-21.05ZM105.3-2.2L106.85-1.1Q105.7 0.5 103.75 0.5L103.75 0.5Q101.95 0.5 100.82-0.68 99.7-1.85 99.7-3.85L99.7-3.85 99.7-16.85Q99.7-23.35 93.7-23.35L93.7-23.35Q91.2-23.35 89.12-22.08 87.05-20.8 84.9-17.9L84.9-17.9 84.9 0 82.8 0 82.8-18Q82.8-20.2 82.35-21.48 81.9-22.75 80.95-23.95L80.95-23.95 82.35-25.3Q83.45-24.25 84.12-22.88 84.8-21.5 84.9-20.05L84.9-20.05Q86.6-22.8 88.77-24.03 90.95-25.25 93.95-25.25L93.95-25.25Q97.7-25.25 99.75-23.35 101.8-21.45 101.8-17.9L101.8-17.9 101.8-3.8Q101.8-2.6 102.35-2 102.9-1.4 103.8-1.4L103.8-1.4Q104.65-1.4 105.3-2.2L105.3-2.2ZM136.99 14.5Q133.79 14.5 131.74 12.35 129.69 10.2 129.69 6.9L129.69 6.9Q129.69 4.75 130.77 2.95 131.84 1.15 133.69 0.3L133.69 0.3Q129.54 0.3 127.42-1.48 125.29-3.25 125.29-6.75L125.29-6.75 125.29-18.15Q125.29-20.35 124.84-21.63 124.39-22.9 123.44-24.1L123.44-24.1 124.84-25.45Q125.99-24.3 126.69-22.83 127.39-21.35 127.39-19.8L127.39-19.8 127.39-7.8Q127.39-4.55 128.79-3.08 130.19-1.6 133.34-1.6L133.34-1.6Q135.69-1.6 137.59-2.6 139.49-3.6 141.34-5.9L141.34-5.9Q141.74-6.65 141.92-7.2 142.09-7.75 142.09-8.4L142.09-8.4 142.14-25 144.24-25 144.19-6.7 144.19 6.25Q144.19 10.05 142.27 12.28 140.34 14.5 136.99 14.5L136.99 14.5ZM136.94 12.5Q139.29 12.5 140.69 10.85 142.09 9.2 142.09 6.45L142.09 6.45 142.09-3.95Q140.69-2.15 138.69-0.8L138.69-0.8Q136.94 0.2 135.89 0.75L135.89 0.75Q133.74 1.85 132.77 3.3 131.79 4.75 131.79 6.8L131.79 6.8Q131.79 9.3 133.22 10.9 134.64 12.5 136.94 12.5L136.94 12.5ZM162.79 0.45Q159.24 0.45 156.51-1.15 153.79-2.75 152.26-5.65 150.74-8.55 150.74-12.3L150.74-12.3Q150.74-16.1 152.26-19.03 153.79-21.95 156.54-23.6 159.29-25.25 162.84-25.25L162.84-25.25Q166.39-25.25 169.14-23.63 171.89-22 173.41-19.07 174.94-16.15 174.94-12.35L174.94-12.35Q174.94-8.6 173.41-5.68 171.89-2.75 169.14-1.15 166.39 0.45 162.79 0.45L162.79 0.45ZM162.84-1.45Q165.79-1.45 168.06-2.85 170.34-4.25 171.59-6.78 172.84-9.3 172.84-12.55L172.84-12.55Q172.84-15.75 171.59-18.2 170.34-20.65 168.06-22 165.79-23.35 162.84-23.35L162.84-23.35Q159.89-23.35 157.61-21.98 155.34-20.6 154.09-18.1 152.84-15.6 152.84-12.35L152.84-12.35Q152.84-9.15 154.09-6.68 155.34-4.2 157.61-2.83 159.89-1.45 162.84-1.45L162.84-1.45ZM197.64-3.8Q194.34 0.35 188.64 0.35L188.64 0.35Q184.89 0.35 182.94-1.38 180.99-3.1 180.79-6.75L180.79-6.75 180.79-18.2Q180.79-20.4 180.34-21.68 179.89-22.95 178.94-24.15L178.94-24.15 180.34-25.5Q181.49-24.35 182.19-22.88 182.89-21.4 182.89-19.85L182.89-19.85 182.89-8.05Q182.89-1.55 188.94-1.55L188.94-1.55Q191.69-1.55 193.64-2.83 195.59-4.1 197.59-6.75L197.59-6.75 197.64-25 199.74-25 199.69-3.9Q199.69-2.7 200.24-2.13 200.79-1.55 201.69-1.55L201.69-1.55Q202.14-1.55 202.61-1.8 203.09-2.05 203.29-2.4L203.29-2.4 204.89-1.4Q204.39-0.55 203.51-0.1 202.64 0.35 201.69 0.35L201.69 0.35Q199.84 0.35 198.79-0.73 197.74-1.8 197.64-3.8L197.64-3.8ZM219.18-25.25Q219.88-25.25 221.78-24.9L221.78-24.9 221.78-23Q220.33-23.25 219.28-23.25L219.28-23.25Q216.43-23.25 214.68-21.85L214.68-21.85Q213.93-21.2 213.08-20.18 212.23-19.15 211.63-18L211.63-18 211.63-0.05 209.53-0.05 209.53-18.1Q209.53-20.3 209.08-21.58 208.63-22.85 207.68-24.05L207.68-24.05 209.08-25.4Q210.18-24.35 210.86-23.03 211.53-21.7 211.63-20.25L211.63-20.25Q212.28-21.55 213.18-22.6 214.08-23.65 214.98-24.2L214.98-24.2Q216.68-25.25 219.18-25.25L219.18-25.25ZM259.38-3.8Q259.38-2.6 259.93-2 260.48-1.4 261.38-1.4L261.38-1.4Q262.23-1.4 262.88-2.2L262.88-2.2 264.43-1.1Q263.28 0.5 261.33 0.5L261.33 0.5Q259.53 0.5 258.4-0.68 257.28-1.85 257.28-3.85L257.28-3.85 257.28-17.4Q257.28-20.45 255.65-21.98 254.03-23.5 251.03-23.5L251.03-23.5Q248.33-23.5 246.4-22.15 244.48-20.8 242.48-18.05L242.48-18.05 242.48-0.2 240.38-0.2 240.38-36.5 242.48-36.5 242.48-20.05Q244.13-22.8 246.3-24.1 248.48-25.4 251.43-25.4L251.43-25.4Q255.48-25.4 257.43-23.45 259.38-21.5 259.38-17.55L259.38-17.55 259.38-3.8ZM290.88-2.4L292.48-1.4Q291.98-0.55 291.1-0.1 290.23 0.35 289.28 0.35L289.28 0.35Q287.48 0.35 286.43-0.68 285.38-1.7 285.23-3.7L285.23-3.7Q284.18-1.8 282.03-0.68 279.88 0.45 277.18 0.45L277.18 0.45Q273.73 0.45 271.35-1.28 268.98-3 267.8-5.88 266.63-8.75 266.63-12.25L266.63-12.25Q266.63-16.15 268.08-19.07 269.53-22 272.25-23.63 274.98-25.25 278.73-25.25L278.73-25.25Q279.88-25.25 281.65-25.13 283.43-25 284.78-24.8L284.78-24.8 287.28-24.8 287.28-3.9Q287.28-2.7 287.83-2.13 288.38-1.55 289.28-1.55L289.28-1.55Q289.73-1.55 290.2-1.8 290.68-2.05 290.88-2.4L290.88-2.4ZM285.18-9.3L285.18-23Q284.38-22.95 281.58-23.15L281.58-23.15 278.53-23.25Q273.78-23.25 271.25-20.15 268.73-17.05 268.73-12.35L268.73-12.35Q268.73-9.55 269.7-7.08 270.68-4.6 272.6-3.08 274.53-1.55 277.23-1.55L277.23-1.55Q279.68-1.55 281.58-2.75 283.48-3.95 284.43-5.85L284.43-5.85Q285.18-7.35 285.18-9.3L285.18-9.3ZM307.27-25.25Q310.72-25.25 313.12-23.55 315.52-21.85 316.72-18.98 317.92-16.1 317.92-12.55L317.92-12.55Q317.92-8.7 316.5-5.78 315.07-2.85 312.35-1.2 309.62 0.45 305.82 0.45L305.82 0.45Q303.82 0.45 299.37-0.15L299.37-0.15 299.37 13 297.27 13 297.27-18.05Q297.27-20.25 296.82-21.53 296.37-22.8 295.42-24L295.42-24 296.82-25.35Q297.87-24.35 298.55-23.05 299.22-21.75 299.32-20.35L299.32-20.35Q300.37-22.9 302.45-24.08 304.52-25.25 307.27-25.25L307.27-25.25ZM305.57-1.45Q310.52-1.45 313.17-4.42 315.82-7.4 315.82-12.25L315.82-12.25Q315.82-15.25 314.82-17.78 313.82-20.3 311.9-21.83 309.97-23.35 307.42-23.35L307.42-23.35Q305.47-23.35 303.7-22.48 301.92-21.6 300.72-20.03 299.52-18.45 299.37-16.45L299.37-16.45 299.37-1.95Q304.37-1.45 305.57-1.45L305.57-1.45ZM334.32-25.25Q337.77-25.25 340.17-23.55 342.57-21.85 343.77-18.98 344.97-16.1 344.97-12.55L344.97-12.55Q344.97-8.7 343.55-5.78 342.12-2.85 339.4-1.2 336.67 0.45 332.87 0.45L332.87 0.45Q330.87 0.45 326.42-0.15L326.42-0.15 326.42 13 324.32 13 324.32-18.05Q324.32-20.25 323.87-21.53 323.42-22.8 322.47-24L322.47-24 323.87-25.35Q324.92-24.35 325.6-23.05 326.27-21.75 326.37-20.35L326.37-20.35Q327.42-22.9 329.5-24.08 331.57-25.25 334.32-25.25L334.32-25.25ZM332.62-1.45Q337.57-1.45 340.22-4.42 342.87-7.4 342.87-12.25L342.87-12.25Q342.87-15.25 341.87-17.78 340.87-20.3 338.95-21.83 337.02-23.35 334.47-23.35L334.47-23.35Q332.52-23.35 330.75-22.48 328.97-21.6 327.77-20.03 326.57-18.45 326.42-16.45L326.42-16.45 326.42-1.95Q331.42-1.45 332.62-1.45L332.62-1.45ZM353.47-3.8Q353.47-2.6 354.02-2 354.57-1.4 355.47-1.4L355.47-1.4Q356.32-1.4 356.97-2.2L356.97-2.2 358.52-1.1Q357.37 0.5 355.42 0.5L355.42 0.5Q353.62 0.5 352.49-0.68 351.37-1.85 351.37-3.85L351.37-3.85 351.37-25 353.47-25 353.47-3.8ZM352.42-28.75Q351.62-28.75 351.12-29.25 350.62-29.75 350.62-30.55L350.62-30.55Q350.62-31.35 351.12-31.85 351.62-32.35 352.42-32.35L352.42-32.35Q353.22-32.35 353.74-31.85 354.27-31.35 354.27-30.55L354.27-30.55Q354.27-29.75 353.74-29.25 353.22-28.75 352.42-28.75L352.42-28.75ZM385.77-2.2L387.32-1.1Q386.17 0.5 384.22 0.5L384.22 0.5Q382.42 0.5 381.29-0.68 380.17-1.85 380.17-3.85L380.17-3.85 380.17-16.85Q380.17-23.35 374.17-23.35L374.17-23.35Q371.67-23.35 369.59-22.08 367.52-20.8 365.37-17.9L365.37-17.9 365.37 0 363.27 0 363.27-18Q363.27-20.2 362.82-21.48 362.37-22.75 361.42-23.95L361.42-23.95 362.82-25.3Q363.92-24.25 364.59-22.88 365.27-21.5 365.37-20.05L365.37-20.05Q367.07-22.8 369.24-24.03 371.42-25.25 374.42-25.25L374.42-25.25Q378.17-25.25 380.22-23.35 382.27-21.45 382.27-17.9L382.27-17.9 382.27-3.8Q382.27-2.6 382.82-2 383.37-1.4 384.27-1.4L384.27-1.4Q385.12-1.4 385.77-2.2L385.77-2.2ZM400.76 0.45Q395.21 0.45 392.36-2.83 389.51-6.1 389.51-11.45L389.51-11.45Q389.51-14.9 390.71-18.05 391.91-21.2 394.41-23.23 396.91-25.25 400.56-25.25L400.56-25.25Q404.36-25.25 406.91-23.2 409.46-21.15 409.46-17.75L409.46-17.75Q409.46-14.15 406.49-12.2 403.51-10.25 398.41-10.25L398.41-10.25 391.76-10.25Q392.16-6.05 394.46-3.75 396.76-1.45 400.76-1.45L400.76-1.45Q403.01-1.45 404.89-2.1 406.76-2.75 408.76-4L408.76-4 409.81-2.55Q405.56 0.45 400.76 0.45L400.76 0.45ZM398.41-12.15Q402.41-12.15 404.89-13.5 407.36-14.85 407.36-17.8L407.36-17.8Q407.36-20.5 405.36-21.93 403.36-23.35 400.71-23.35L400.71-23.35Q397.66-23.35 395.59-21.53 393.51-19.7 392.54-17.07 391.56-14.45 391.66-12.15L391.66-12.15 398.41-12.15ZM422.56 0.55Q420.01 0.55 417.81-0.35 415.61-1.25 413.56-3.15L413.56-3.15 414.76-4.6Q418.41-1.35 422.61-1.35L422.61-1.35Q425.46-1.35 427.31-2.8 429.16-4.25 429.16-6.7L429.16-6.7Q429.16-8.25 428.36-9.25 427.56-10.25 426.19-10.95 424.81-11.65 422.01-12.8L422.01-12.8Q419.41-13.85 418.01-14.6 416.61-15.35 415.74-16.53 414.86-17.7 414.86-19.45L414.86-19.45Q414.86-22.25 416.94-23.95 419.01-25.65 422.46-25.65L422.46-25.65Q425.66-25.65 428.41-23.9L428.41-23.9 427.41-22.3Q424.96-23.75 422.51-23.75L422.51-23.75Q420.06-23.75 418.54-22.55 417.01-21.35 417.01-19.45L417.01-19.45Q417.01-18.4 417.59-17.68 418.16-16.95 419.51-16.23 420.86-15.5 423.76-14.25L423.76-14.25Q426.76-12.95 428.21-12.1 429.66-11.25 430.49-10.05 431.31-8.85 431.31-6.95L431.31-6.95Q431.31-3.5 428.91-1.48 426.51 0.55 422.56 0.55L422.56 0.55ZM443.66 0.55Q441.11 0.55 438.91-0.35 436.71-1.25 434.66-3.15L434.66-3.15 435.86-4.6Q439.51-1.35 443.71-1.35L443.71-1.35Q446.56-1.35 448.41-2.8 450.26-4.25 450.26-6.7L450.26-6.7Q450.26-8.25 449.46-9.25 448.66-10.25 447.28-10.95 445.91-11.65 443.11-12.8L443.11-12.8Q440.51-13.85 439.11-14.6 437.71-15.35 436.83-16.53 435.96-17.7 435.96-19.45L435.96-19.45Q435.96-22.25 438.03-23.95 440.11-25.65 443.56-25.65L443.56-25.65Q446.76-25.65 449.51-23.9L449.51-23.9 448.51-22.3Q446.06-23.75 443.61-23.75L443.61-23.75Q441.16-23.75 439.63-22.55 438.11-21.35 438.11-19.45L438.11-19.45Q438.11-18.4 438.68-17.68 439.26-16.95 440.61-16.23 441.96-15.5 444.86-14.25L444.86-14.25Q447.86-12.95 449.31-12.1 450.76-11.25 451.58-10.05 452.41-8.85 452.41-6.95L452.41-6.95Q452.41-3.5 450.01-1.48 447.61 0.55 443.66 0.55L443.66 0.55Z" opacity="1" transform="matrix(1,0,0,1,0,0)" fill="#ffffff" class="undefined-text-1" data-fill-palette-color="secondary" id="text-1"></path></svg></g></svg></g></svg></g></svg></g><g></g></svg></g></svg><rect width="247.36094126614964" height="280" fill="none" stroke="none" visibility="hidden"></rect></g></svg></g></svg>